<?xml version="1.0" encoding="UTF-8"?>
<svg width="53px" height="52px" viewBox="0 0 53 52" version="1.1" xmlns="http://www.w3.org/2000/svg" xmlns:xlink="http://www.w3.org/1999/xlink">
    <!-- Generator: Sketch 61 (89581) - https://sketch.com -->
    <title>icn_subjects</title>
    <desc>Created with Sketch.</desc>
    <g id="Edit03" stroke="none" stroke-width="1" fill="none" fill-rule="evenodd">
        <g id="Home_Edit03_01" transform="translate(-1121.000000, -4639.000000)" fill="#000000" fill-rule="nonzero" stroke="#000000" stroke-width="0.5">
            <g id="icn_subjects" transform="translate(1122.000000, 4640.000000)">
                <path d="M50,27.9661017 L45.7627119,27.9661017 L45.7627119,7.62711864 C45.7627119,7.15908072 45.3832922,6.77966102 44.9152542,6.77966102 L44.0677966,6.77966102 L44.0677966,0.847457627 C44.0677966,0.379419704 43.6883769,0 43.220339,0 L13.559322,0 C11.2191324,0 9.3220339,1.89709852 9.3220339,4.23728814 L9.3220339,28.0338983 C7.08815976,28.3527274 5.2296909,29.913522 4.52963069,32.0586936 C3.82957048,34.2038653 4.40963118,36.5604551 6.02542373,38.1355932 L5.93220339,38.1355932 C2.65593792,38.1355932 -6.02154861e-15,40.7915311 -6.02154861e-15,44.0677966 C-6.02154861e-15,47.3440621 2.65593792,50 5.93220339,50 L45.7627119,50 C46.2307498,50 46.6101695,49.6205803 46.6101695,49.1525424 L46.6101695,39.8305085 L50,39.8305085 C50.4680379,39.8305085 50.8474576,39.4510888 50.8474576,38.9830508 L50.8474576,28.8135593 C50.8474576,28.3455214 50.4680379,27.9661017 50,27.9661017 L50,27.9661017 Z M22.8813559,1.69491525 L42.3728814,1.69491525 L42.3728814,6.77966102 L22.8813559,6.77966102 L22.8813559,1.69491525 Z M36.440678,8.47457627 L36.440678,15.8474576 L34.6016949,13.0932203 C34.4469233,12.8551673 34.1822478,12.7115504 33.8983051,12.7115504 C33.6143623,12.7115504 33.3496869,12.8551673 33.1949153,13.0932203 L31.3559322,15.8474576 L31.3559322,8.47457627 L36.440678,8.47457627 Z M16.9491525,1.69491525 L21.1864407,1.69491525 L21.1864407,6.77966102 L16.9491525,6.77966102 L16.9491525,1.69491525 Z M13.559322,1.69491525 L15.2542373,1.69491525 L15.2542373,6.77966102 L13.559322,6.77966102 C12.1552083,6.77966102 11.0169492,5.64140189 11.0169492,4.23728814 C11.0169492,2.83317438 12.1552083,1.69491525 13.559322,1.69491525 Z M11.0169492,7.60169492 C11.7449292,8.16511575 12.6387834,8.47200569 13.559322,8.47457627 L29.6610169,8.47457627 L29.6610169,18.6440678 C29.6621083,19.0176488 29.9058276,19.3471847 30.2627119,19.4576271 C30.6211714,19.5661681 31.0082014,19.4244875 31.2118644,19.1101695 L33.8983051,15.0847458 L36.5847458,19.1101695 C36.738932,19.3488152 37.0040156,19.4925353 37.2881356,19.4915254 C37.3713021,19.4927635 37.4541724,19.4813331 37.5338983,19.4576271 C37.8907826,19.3471847 38.1345018,19.0176488 38.1355932,18.6440678 L38.1355932,8.47457627 L44.0677966,8.47457627 L44.0677966,27.9661017 L11.0169492,27.9661017 L11.0169492,7.60169492 Z M6.77966102,48.3050847 L5.93220339,48.3050847 C3.59201377,48.3050847 1.69491525,46.4079862 1.69491525,44.0677966 C1.69491525,41.727607 3.59201377,39.8305085 5.93220339,39.8305085 L6.77966102,39.8305085 L6.77966102,48.3050847 Z M5.93220339,33.8983051 C5.93220339,31.5581155 7.82930191,29.6610169 10.1694915,29.6610169 L11.0169492,29.6610169 L11.0169492,38.1355932 L10.1694915,38.1355932 C7.82930191,38.1355932 5.93220339,36.2384947 5.93220339,33.8983051 L5.93220339,33.8983051 Z M12.7118644,48.3050847 L8.47457627,48.3050847 L8.47457627,39.8305085 L12.7118644,39.8305085 L12.7118644,48.3050847 Z M12.7118644,38.1355932 L12.7118644,29.6610169 L16.9491525,29.6610169 L16.9491525,38.1355932 L12.7118644,38.1355932 Z M44.9152542,48.3050847 L14.4067797,48.3050847 L14.4067797,39.8305085 L44.9152542,39.8305085 L44.9152542,48.3050847 Z M49.1525424,38.1355932 L18.6440678,38.1355932 L18.6440678,29.6610169 L49.1525424,29.6610169 L49.1525424,38.1355932 Z" id="Shape"></path>
            </g>
        </g>
    </g>
</svg>