<?xml version="1.0" encoding="UTF-8"?>
<svg width="40px" height="40px" viewBox="0 0 40 40" version="1.1" xmlns="http://www.w3.org/2000/svg" xmlns:xlink="http://www.w3.org/1999/xlink">
    <!-- Generator: Sketch 61 (89581) - https://sketch.com -->
    <title>icn_students</title>
    <desc>Created with Sketch.</desc>
    <g id="Final_Version_JAN2020" stroke="none" stroke-width="1" fill="none" fill-rule="evenodd">
        <g id="Edit02_WerdeTutor_02" transform="translate(-1080.000000, -880.000000)" fill="#000000" fill-rule="nonzero">
            <g id="icn_students" transform="translate(1080.000000, 880.000000)">
                <path d="M24.4979226,9.24936864 C24.329776,9.12619145 24.1120978,9.09164969 23.9146232,9.15486762 L5.88187373,14.9507128 L0.88114053,13.0756823 C0.679755601,13.0007332 0.456211813,13.0294094 0.28089613,13.1499796 C0.104928717,13.2725051 5.86197757e-14,13.4725866 5.86197757e-14,13.6863544 L5.86197757e-14,24.114053 C5.86197757e-14,24.3278208 0.104928717,24.5279022 0.28089613,24.649776 C0.391038697,24.7260285 0.520733198,24.7657841 0.651731161,24.7657841 C0.728635438,24.7657841 0.806191446,24.7520978 0.88114053,24.7247251 L5.88252546,22.8490428 L7.16904277,23.2622403 L7.16904277,26.0692464 C7.16904277,27.1472098 8.04627291,28.0244399 9.12423625,28.0244399 L13.0346232,28.0244399 C14.1125866,28.0244399 14.9898167,27.1472098 14.9898167,26.0692464 L14.9898167,25.7759674 L23.9146232,28.644888 C23.9797963,28.6657434 24.0469246,28.6761711 24.114053,28.6761711 C24.2502648,28.6761711 24.3851731,28.6338086 24.4979226,28.5510387 C24.666721,28.4285132 24.7657841,28.2323422 24.7657841,28.0244399 L24.7657841,9.77596741 C24.7657841,9.56806517 24.666721,9.37189409 24.4979226,9.24936864 Z M5.21384929,21.706558 L1.30346232,23.1729532 L1.30346232,14.6268024 L5.21384929,16.0931976 L5.21384929,21.706558 Z M13.6863544,26.0692464 C13.6863544,26.429002 13.3943788,26.7209776 13.0346232,26.7209776 L9.12423625,26.7209776 C8.76448065,26.7209776 8.47250509,26.429002 8.47250509,26.0692464 L8.47250509,23.6813035 L13.6863544,25.3569043 L13.6863544,26.0692464 Z M23.4623218,27.1302648 L6.51731161,21.6843992 L6.51731161,16.1166599 L23.4623218,10.6707943 L23.4623218,27.1302648 Z" id="Shape"></path>
                <path d="M35.4391853,5.64594705 C36.0850509,5.05026477 36.496945,4.20431772 36.496945,3.2586558 C36.496945,1.46183299 35.035112,2.7533531e-14 33.2382892,2.7533531e-14 C31.4414664,2.7533531e-14 29.9796334,1.46183299 29.9796334,3.2586558 C29.9796334,4.20431772 30.3915275,5.05026477 31.0373931,5.64594705 C28.8912424,6.51861507 27.3727088,8.62370672 27.3727088,11.0794297 C27.3727088,11.4398371 27.6640326,11.7311609 28.0244399,11.7311609 L38.4521385,11.7311609 C38.8125458,11.7311609 39.1038697,11.4398371 39.1038697,11.0794297 C39.1038697,8.62370672 37.585336,6.51861507 35.4391853,5.64594705 Z M33.2382892,1.30346232 C34.3162525,1.30346232 35.1934827,2.18069246 35.1934827,3.2586558 C35.1934827,4.33661914 34.3162525,5.21384929 33.2382892,5.21384929 C32.1603259,5.21384929 31.2830957,4.33661914 31.2830957,3.2586558 C31.2830957,2.18069246 32.1603259,1.30346232 33.2382892,1.30346232 Z M28.722444,10.4276986 C29.0391853,8.2196334 30.9435438,6.51731161 33.2382892,6.51731161 C35.5330346,6.51731161 37.4367413,8.2196334 37.7541344,10.4276986 L28.722444,10.4276986 Z" id="Shape"></path>
                <path d="M35.4391853,19.3323014 C36.0850509,18.7366191 36.496945,17.8906721 36.496945,16.9450102 C36.496945,15.1481874 35.035112,13.6863544 33.2382892,13.6863544 C31.4414664,13.6863544 29.9796334,15.1481874 29.9796334,16.9450102 C29.9796334,17.8906721 30.3915275,18.7366191 31.0373931,19.3323014 C28.8912424,20.2049695 27.3727088,22.3100611 27.3727088,24.7657841 C27.3727088,25.1261914 27.6640326,25.4175153 28.0244399,25.4175153 L38.4521385,25.4175153 C38.8125458,25.4175153 39.1038697,25.1261914 39.1038697,24.7657841 C39.1038697,22.3100611 37.585336,20.2049695 35.4391853,19.3323014 Z M33.2382892,14.9898167 C34.3162525,14.9898167 35.1934827,15.8670468 35.1934827,16.9450102 C35.1934827,18.0229735 34.3162525,18.9002037 33.2382892,18.9002037 C32.1603259,18.9002037 31.2830957,18.0229735 31.2830957,16.9450102 C31.2830957,15.8670468 32.1603259,14.9898167 33.2382892,14.9898167 Z M28.722444,24.114053 C29.0391853,21.9059878 30.9435438,20.203666 33.2382892,20.203666 C35.5330346,20.203666 37.4367413,21.9059878 37.7541344,24.114053 L28.722444,24.114053 Z" id="Shape"></path>
                <path d="M35.4391853,33.0186558 C36.0850509,32.4229735 36.496945,31.5770265 36.496945,30.6313646 C36.496945,28.8345418 35.035112,27.3727088 33.2382892,27.3727088 C31.4414664,27.3727088 29.9796334,28.8345418 29.9796334,30.6313646 C29.9796334,31.5770265 30.3915275,32.4229735 31.0373931,33.0186558 C28.8912424,33.8913238 27.3727088,35.9964155 27.3727088,38.4521385 C27.3727088,38.8125458 27.6640326,39.1038697 28.0244399,39.1038697 L38.4521385,39.1038697 C38.8125458,39.1038697 39.1038697,38.8125458 39.1038697,38.4521385 C39.1038697,35.9964155 37.585336,33.8913238 35.4391853,33.0186558 Z M33.2382892,28.6761711 C34.3162525,28.6761711 35.1934827,29.5534012 35.1934827,30.6313646 C35.1934827,31.7093279 34.3162525,32.586558 33.2382892,32.586558 C32.1603259,32.586558 31.2830957,31.7093279 31.2830957,30.6313646 C31.2830957,29.5534012 32.1603259,28.6761711 33.2382892,28.6761711 Z M28.722444,37.8004073 C29.0391853,35.5923422 30.9435438,33.8900204 33.2382892,33.8900204 C35.5330346,33.8900204 37.4367413,35.5923422 37.7541344,37.8004073 L28.722444,37.8004073 Z" id="Shape"></path>
                <path d="M19.5519348,15.6415479 L14.9898167,15.6415479 C13.9118534,15.6415479 13.0346232,16.518778 13.0346232,17.5967413 L13.0346232,18.630387 L10.6186558,21.0463544 C10.4322607,21.2327495 10.3762118,21.5129939 10.4772301,21.7567413 C10.5775967,22.0004888 10.8161303,22.1588595 11.0794297,22.1588595 L19.5519348,22.1588595 C20.6298982,22.1588595 21.5071283,21.2816293 21.5071283,20.203666 L21.5071283,17.5967413 C21.5071283,16.518778 20.6298982,15.6415479 19.5519348,15.6415479 Z M20.203666,20.203666 C20.203666,20.5634216 19.9116904,20.8553971 19.5519348,20.8553971 L12.6527088,20.8553971 L14.1471283,19.3609776 C14.2696538,19.2391039 14.3380855,19.0735642 14.3380855,18.9002037 L14.3380855,17.5967413 C14.3380855,17.2369857 14.6300611,16.9450102 14.9898167,16.9450102 L19.5519348,16.9450102 C19.9116904,16.9450102 20.203666,17.2369857 20.203666,17.5967413 L20.203666,20.203666 Z" id="Shape"></path>
                <rect id="Rectangle" x="15.6415479" y="18.2484725" width="3.2586558" height="1.30346232"></rect>
                <rect id="Rectangle" x="9.12423625" y="11.0794297" width="1.30346232" height="1.30346232"></rect>
                <rect id="Rectangle" x="9.12423625" y="8.47250509" width="1.30346232" height="1.30346232"></rect>
                <rect id="Rectangle" x="9.12423625" y="5.86558045" width="1.30346232" height="1.30346232"></rect>
                <rect id="Rectangle" x="9.12423625" y="3.2586558" width="1.30346232" height="1.30346232"></rect>
                <rect id="Rectangle" x="11.7311609" y="3.2586558" width="1.30346232" height="1.30346232"></rect>
                <rect id="Rectangle" x="14.3380855" y="3.2586558" width="1.30346232" height="1.30346232"></rect>
                <rect id="Rectangle" x="16.9450102" y="3.2586558" width="1.30346232" height="1.30346232"></rect>
                <rect id="Rectangle" x="19.5519348" y="3.2586558" width="1.30346232" height="1.30346232"></rect>
                <rect id="Rectangle" x="22.1588595" y="3.2586558" width="1.30346232" height="1.30346232"></rect>
                <rect id="Rectangle" x="24.7657841" y="3.2586558" width="1.30346232" height="1.30346232"></rect>
                <rect id="Rectangle" x="27.3727088" y="3.2586558" width="1.30346232" height="1.30346232"></rect>
                <rect id="Rectangle" x="9.12423625" y="31.9348269" width="1.30346232" height="1.30346232"></rect>
                <rect id="Rectangle" x="9.12423625" y="29.3279022" width="1.30346232" height="1.30346232"></rect>
                <rect id="Rectangle" x="11.7311609" y="31.9348269" width="1.30346232" height="1.30346232"></rect>
                <rect id="Rectangle" x="14.3380855" y="31.9348269" width="1.30346232" height="1.30346232"></rect>
                <rect id="Rectangle" x="16.9450102" y="31.9348269" width="1.30346232" height="1.30346232"></rect>
                <rect id="Rectangle" x="19.5519348" y="31.9348269" width="1.30346232" height="1.30346232"></rect>
                <rect id="Rectangle" x="22.1588595" y="31.9348269" width="1.30346232" height="1.30346232"></rect>
                <rect id="Rectangle" x="24.7657841" y="31.9348269" width="1.30346232" height="1.30346232"></rect>
                <rect id="Rectangle" x="27.3727088" y="31.9348269" width="1.30346232" height="1.30346232"></rect>
            </g>
        </g>
    </g>
</svg>