<?xml version="1.0" encoding="UTF-8"?>
<svg width="41px" height="52px" viewBox="0 0 41 52" version="1.1" xmlns="http://www.w3.org/2000/svg" xmlns:xlink="http://www.w3.org/1999/xlink">
    <!-- Generator: Sketch 61 (89581) - https://sketch.com -->
    <title>icn_success</title>
    <desc>Created with Sketch.</desc>
    <g id="Edit03" stroke="none" stroke-width="1" fill="none" fill-rule="evenodd">
        <g id="Home_Edit03_01" transform="translate(-557.000000, -4639.000000)" fill="#000000" fill-rule="nonzero" stroke="#000000" stroke-width="0.5">
            <g id="icn_success" transform="translate(558.000000, 4640.000000)">
                <path d="M32.1704864,33.1302643 L23.0552674,33.1302643 L22.53685,26.6924591 C22.4765777,26.2922974 22.1042633,26.0172577 21.7037201,26.0771484 C21.3035584,26.1374207 21.0281372,26.510498 21.0884094,26.9106598 L21.5736389,33.1298828 L17.4213409,33.1298828 L17.9077148,26.9030304 C17.9683686,26.5032501 17.6929474,26.1297912 17.2927856,26.0699005 C16.8926239,26.0092469 16.5195465,26.284668 16.4592743,26.6848297 L15.9400939,33.1302643 L6.82449336,33.1302643 C5.65643311,33.1302643 4.70581055,34.0805054 4.70581055,35.2485656 C4.70581055,36.296463 5.47027588,37.1688843 6.470871,37.3378754 L6.470871,45.7920074 C5.47027588,45.9609985 4.70581055,46.8334198 4.70581055,47.8813172 C4.70581055,49.0493774 5.65643311,50 6.82449336,50 L32.1704864,50 C33.3389282,50 34.2891693,49.0493774 34.2891693,47.8813172 C34.2891693,46.8334198 33.524704,45.9609985 32.5244903,45.7920074 L32.5244903,37.3378754 C33.524704,37.1688843 34.2891693,36.296463 34.2891693,35.2485656 C34.2891693,34.0805054 33.3389282,33.1302643 32.1704864,33.1302643 Z M7.93571475,45.7626343 L7.93571475,37.3672485 L31.0596466,37.3672485 L31.0596466,45.7626343 L7.93571475,45.7626343 Z M6.1706543,35.2485656 C6.1706543,34.8880768 6.46400449,34.595108 6.82449336,34.595108 L32.1704864,34.595108 C32.5309754,34.595108 32.8243256,34.8880768 32.8243256,35.2485656 C32.8243256,35.6090546 32.5309754,35.9024048 32.1704864,35.9024048 L6.82449336,35.9024048 C6.46400449,35.9024048 6.1706543,35.609436 6.1706543,35.2485656 Z M32.8243256,47.8813172 C32.8243256,48.2418061 32.5313568,48.5351562 32.1704864,48.5351562 L6.82449336,48.5351562 C6.46400449,48.5351562 6.1706543,48.2418061 6.1706543,47.8813172 C6.1706543,47.5208282 6.46400449,47.227478 6.82449336,47.227478 L32.1704864,47.227478 C32.5309754,47.227478 32.8243256,47.5208282 32.8243256,47.8813172 Z" id="Shape"></path>
                <path d="M37.4607086,3.30314639 C36.7271424,2.45094297 35.798645,1.99699404 34.7011566,1.95426943 C33.4934234,1.90696719 32.2429657,2.38533018 31.1599731,2.99301152 C31.2641144,2.73933408 31.3213349,2.46162412 31.3213349,2.17094424 C31.3213349,0.973892187 30.3478241,0 29.1507721,0 L9.84458926,0 C8.64753721,0 7.67364502,0.973892188 7.67364502,2.17094424 C7.67364502,2.45895391 7.73010254,2.734375 7.83233643,2.98614502 C6.79893496,2.40936279 5.61485293,1.95121768 4.46166992,1.95121768 C4.4052124,1.95121768 4.34837344,1.95198057 4.29229736,1.95465088 C3.19480898,1.99813848 2.26707461,2.4520874 1.53427129,3.30314639 C0.44708252,4.56542969 -0.0473022461,5.95474238 0.0640869141,7.43255615 C0.337600684,11.0538482 4.1484833,14.3238067 6.93092344,16.7114258 C7.68928525,17.3622131 8.3438873,17.9241181 8.79402158,18.3818817 C9.33952334,18.9369201 9.65232852,19.7174072 9.65232852,20.5238342 C9.65232852,21.1997986 9.15145879,21.7498779 8.53538516,21.7498779 C7.91969297,21.7498779 7.41882324,21.1997986 7.41882324,20.5238342 L7.41882324,19.3027496 C7.41882324,18.8983917 7.09075928,18.5703277 6.68640137,18.5703277 C6.28204346,18.5703277 5.95397949,18.8983917 5.95397949,19.3027496 L5.95397949,20.5234527 C5.95397949,22.00737 7.11212158,23.2143402 8.53538516,23.2143402 C9.23919678,23.2143402 9.87815859,22.9194641 10.3443146,22.4414825 C12.5087738,26.153183 18.9506531,28.2218934 19.2775727,28.3248901 C19.349289,28.3473969 19.423294,28.3588409 19.4976807,28.3588409 C19.5716857,28.3588409 19.6460724,28.3473969 19.7174072,28.3248901 C20.0443268,28.2218934 26.4865875,26.153183 28.6506652,22.4414825 C29.1168213,22.9194641 29.7557831,23.2143402 30.4595947,23.2143402 C31.8832397,23.2143402 33.0413818,22.00737 33.0413818,20.5234527 L33.0413818,19.3027496 C33.0413818,18.8983917 32.7133179,18.5703277 32.30896,18.5703277 C31.9042206,18.5703277 31.5765381,18.8983917 31.5765381,19.3027496 L31.5765381,20.5234527 C31.5765381,21.1997986 31.0752869,21.7494965 30.4595947,21.7494965 C29.8439025,21.7494965 29.3426514,21.1997986 29.3426514,20.5234527 C29.3426514,19.7174072 29.655838,18.9365387 30.2013397,18.3818817 C30.6510926,17.9237365 31.3060761,17.3622131 32.0640564,16.7114258 C34.8464966,14.3238067 38.6573791,11.0538482 38.930893,7.43255615 C39.0426636,5.95474238 38.5478974,4.56542969 37.4607086,3.30314639 L37.4607086,3.30314639 Z M9.84458926,1.46484375 L29.1507721,1.46484375 C29.5398712,1.46484375 29.8564911,1.78146367 29.8564911,2.17094424 C29.8564911,2.56004336 29.5398712,2.87704473 29.1507721,2.87704473 L9.84458926,2.87704473 C9.45510859,2.87704473 9.13848877,2.5604248 9.13848877,2.17094424 C9.13848877,1.78146367 9.45510859,1.46484375 9.84458926,1.46484375 Z M7.8849793,15.599823 C5.29670713,13.3792877 1.75247187,10.3378296 1.52473447,7.32231143 C1.44233701,6.23130801 1.80854795,5.22918701 2.64434814,4.25872803 C3.10745234,3.72085566 3.66516113,3.44581602 4.34875488,3.4183502 C6.22634883,3.3424377 8.61892695,5.16548154 9.64202881,6.10351562 L9.64202881,7.37648008 C9.6103668,7.60688779 9.50431826,7.82127383 9.33532715,7.99102783 C9.12551875,8.20198057 8.8470459,8.31832891 8.55102539,8.31832891 C7.9498291,8.31832891 7.46078496,7.82966611 7.46078496,7.22846982 C7.46078496,6.82411191 7.13310244,6.49604795 6.72836309,6.49604795 C6.32400508,6.49604795 5.99594121,6.82411191 5.99594121,7.22846982 C5.99594121,8.6372375 7.14225771,9.78317266 8.55102539,9.78317266 C8.93440244,9.78317266 9.30519102,9.69963076 9.64202881,9.5413208 L9.64202881,17.1604156 C9.17167666,16.7041778 8.56895449,16.1869049 7.8849793,15.599823 Z M19.4976807,26.8562316 C16.9639588,26.0120392 11.1068726,23.3497619 11.1068726,19.9817657 L11.1068726,4.34188848 L27.8881073,4.34188848 L27.8881073,19.9817657 C27.8881073,23.3497619 22.0310211,26.0120392 19.4976807,26.8562316 Z M37.4702453,7.32231143 C37.2425079,10.3378296 33.6982727,13.3792877 31.110382,15.599823 C30.4260254,16.1869049 29.8233032,16.7041778 29.3529511,17.1600342 L29.3529511,9.53903203 C29.6894073,9.69886777 30.0601959,9.78317266 30.4443359,9.78317266 C31.8531036,9.78317266 32.9990387,8.6372375 32.9990387,7.22846982 C32.9990387,6.82373047 32.6713563,6.49604795 32.2666168,6.49604795 C31.8622589,6.49604795 31.5341949,6.82373047 31.5341949,7.22846982 C31.5341949,7.82928467 31.0451508,8.31832891 30.4443359,8.31832891 C30.1548004,8.31832891 29.8831939,8.20579531 29.6798706,8.00094609 C29.473877,7.79380801 29.3613434,7.51686094 29.3632508,7.21702578 L29.3632508,6.11152646 C30.3733826,5.17692568 32.7598572,3.34320068 34.6443176,3.41796875 C35.3282929,3.44467168 35.8867646,3.71971133 36.3510132,4.25872803 C37.1864318,5.22918701 37.5526428,6.23130801 37.4702453,7.32231143 L37.4702453,7.32231143 Z" id="Shape"></path>
            </g>
        </g>
    </g>
</svg>