<?xml version="1.0" encoding="UTF-8"?>
<svg width="39px" height="40px" viewBox="0 0 39 40" version="1.1" xmlns="http://www.w3.org/2000/svg" xmlns:xlink="http://www.w3.org/1999/xlink">
    <!-- Generator: Sketch 61 (89581) - https://sketch.com -->
    <title>icn_easytouse</title>
    <desc>Created with Sketch.</desc>
    <g id="Final_Version_JAN2020" stroke="none" stroke-width="1" fill="none" fill-rule="evenodd">
        <g id="Edit02_WerdeTutor_02" transform="translate(-624.000000, -880.000000)" fill="#000000" fill-rule="nonzero">
            <g id="icn_easytouse" transform="translate(624.079919, 880.000000)">
                <path d="M38.4488798,21.5097352 C38.0786965,21.0939308 37.5462322,20.8553971 36.9896538,20.8553971 L23.1240733,20.8553971 L18.8884725,15.5607332 C18.2875764,14.8099389 17.401222,14.373279 16.4451324,14.3439511 C16.7638289,13.5331976 16.9450102,12.6533605 16.9450102,11.7311609 L16.9450102,5.80692464 C18.7913646,5.49539715 20.203666,3.88953157 20.203666,1.95519348 L20.203666,0.651731161 C20.203666,0.291323829 19.9116904,9.59232693e-14 19.5519348,9.59232693e-14 L7.16904277,9.59232693e-14 C4.65336049,9.59232693e-14 2.60692464,2.04708758 2.60692464,4.56211813 L2.60692464,10.4276986 L2.60692464,11.7311609 C2.60692464,12.6572709 2.78940937,13.5397149 3.1100611,14.3530754 C1.38362525,14.4325866 -4.97379915e-14,15.8507536 -4.97379915e-14,17.5967413 L-4.97379915e-14,33.2382892 C-4.97379915e-14,34.30778 0.525295316,35.250835 1.32366599,35.8452138 L1.30346232,35.8452138 L1.30346232,39.1038697 L2.60692464,39.1038697 L2.60692464,36.4311202 C2.81743381,36.4741344 3.03576375,36.496945 3.2586558,36.496945 L5.86558045,36.496945 L5.86558045,37.1486762 C5.86558045,38.2266395 6.74281059,39.1038697 7.82077393,39.1038697 L35.3349084,39.1038697 C36.3281466,39.1038697 37.163666,38.3595927 37.2770672,37.3728717 L38.9311609,23.0354379 C38.9950305,22.4814664 38.8197149,21.9261914 38.4488798,21.5097352 Z M3.91038697,4.56211813 C3.91038697,2.76529532 5.37221996,1.30346232 7.16904277,1.30346232 L18.9002037,1.30346232 L18.9002037,1.95519348 C18.9002037,3.39291242 17.730998,4.56211813 16.293279,4.56211813 L7.16904277,4.56211813 C6.80928717,4.56211813 6.51731161,4.85344196 6.51731161,5.21384929 L6.51731161,6.51731161 C6.51731161,8.09124236 5.39568228,9.40773931 3.91038697,9.71014257 L3.91038697,4.56211813 Z M3.91038697,11.0272912 C6.11780041,10.7092464 7.82077393,8.81075356 7.82077393,6.51731161 L7.82077393,5.86558045 L15.6415479,5.86558045 L15.6415479,11.7311609 C15.6415479,12.8136864 15.3417515,13.8251731 14.8281874,14.6965377 C14.7108758,14.8953157 14.5824847,15.0856212 14.4449695,15.2674542 C14.4286762,15.2889613 14.4130346,15.3111202 14.3960896,15.3326273 C14.0910794,15.7230143 13.7397963,16.0710387 13.3533198,16.3695316 C13.3370265,16.3825662 13.3200815,16.3942974 13.3031365,16.4066802 C13.1134827,16.5500611 12.9166599,16.6823625 12.7113646,16.8016293 C12.7061507,16.804888 12.7009369,16.8081466 12.695723,16.8114053 C12.2727495,17.0551527 11.8184929,17.2448065 11.3459878,17.3771079 C11.3075356,17.3881874 11.2684318,17.3973116 11.2293279,17.4070876 C11.0403259,17.4559674 10.8474134,17.4937678 10.6531976,17.5237475 C10.5984521,17.53222 10.5443585,17.5419959 10.489613,17.5485132 C10.2536864,17.5778411 10.0158045,17.5967413 9.77596741,17.5967413 C9.53613035,17.5967413 9.29824847,17.5778411 9.06297352,17.549165 C9.00757637,17.5426477 8.95413442,17.53222 8.899389,17.5243992 C8.70517312,17.4944196 8.51226069,17.4566191 8.32325866,17.4077393 C8.28415479,17.3979633 8.24505092,17.3881874 8.20659878,17.3777597 C7.73409369,17.2448065 7.27983707,17.0558045 6.85686354,16.812057 C6.85164969,16.8087984 6.84643585,16.8055397 6.841222,16.8022811 C6.63657841,16.6830143 6.43910387,16.5507128 6.2494501,16.407332 C6.23250509,16.3949491 6.21556008,16.3825662 6.1992668,16.3701833 C5.81213849,16.0716904 5.46150713,15.723666 5.15649695,15.333279 C5.13955193,15.3117719 5.12391039,15.289613 5.10761711,15.2681059 C4.9694501,15.0862729 4.84105906,14.8966191 4.72439919,14.6971894 C4.2101833,13.8251731 3.91038697,12.8136864 3.91038697,11.7311609 L3.91038697,11.0272912 L3.91038697,11.0272912 Z M3.2586558,35.1934827 C2.18069246,35.1934827 1.30346232,34.3162525 1.30346232,33.2382892 L1.30346232,17.5967413 C1.30346232,16.518778 2.18069246,15.6415479 3.2586558,15.6415479 L3.77417515,15.6415479 C3.77613035,15.6448065 3.77873727,15.6474134 3.78069246,15.6506721 C3.94167006,15.8963747 4.11763747,16.1316497 4.30663951,16.3558452 C4.31380855,16.3643177 4.32162933,16.3721385 4.3294501,16.380611 C4.50346232,16.5839511 4.6892057,16.7749084 4.88472505,16.9580448 C4.91861507,16.9893279 4.95250509,17.0199593 4.98704684,17.0505906 C5.17539715,17.2206925 5.37221996,17.3810183 5.57816701,17.5302648 C5.59706721,17.5439511 5.61531568,17.5589409 5.63486762,17.5726273 C6.10020367,17.9037067 6.60529532,18.179389 7.14362525,18.3931568 C7.16513238,18.4016293 7.18729124,18.4087984 7.20879837,18.4172709 C7.44016293,18.506558 7.67739308,18.5834623 7.91983707,18.6486354 C7.97653768,18.6636253 8.03258656,18.6786151 8.0899389,18.6923014 C8.30435845,18.7444399 8.52203666,18.785499 8.74297352,18.8174338 C8.80814664,18.8272098 8.87201629,18.8395927 8.93784114,18.8474134 C9.21287169,18.8793483 9.49181263,18.9002037 9.77596741,18.9002037 C10.0601222,18.9002037 10.3390631,18.8793483 10.6147454,18.8467617 C10.6805703,18.8389409 10.7444399,18.826558 10.809613,18.8167821 C11.0305499,18.7848473 11.2482281,18.7431365 11.4626477,18.6916497 C11.5193483,18.6779633 11.5760489,18.6629735 11.6327495,18.6479837 C11.8751935,18.5828106 12.1124236,18.5059063 12.3437882,18.4166191 C12.3652953,18.4081466 12.3874542,18.4009776 12.4089613,18.3925051 C12.9472912,18.1787373 13.4523829,17.903055 13.9177189,17.5719756 C13.9366191,17.5582892 13.9548676,17.5432994 13.9744196,17.529613 C14.1803666,17.3803666 14.3771894,17.2200407 14.5655397,17.0499389 C14.6000815,17.0193075 14.6339715,16.9886762 14.6678615,16.9573931 C14.8627291,16.7749084 15.0491242,16.5832994 15.2231365,16.3799593 C15.2303055,16.3714868 15.2381263,16.363666 15.245947,16.3551935 C15.4356008,16.1316497 15.6109165,15.8963747 15.7718941,15.6500204 C15.7738493,15.6467617 15.7764562,15.6441548 15.7784114,15.6408961 L16.3441141,15.6408961 C16.9410998,15.6408961 17.4976782,15.9081059 17.8711202,16.3747454 L21.4543381,20.8553971 L18.7581263,20.8553971 C17.764888,20.8553971 16.9293686,21.5996741 16.8159674,22.5863951 L15.3613035,35.1934827 L14.2924644,35.1934827 C13.9698574,32.6256619 11.7774338,30.6313646 9.12358452,30.6313646 L5.86492872,30.6313646 L5.86492872,23.4623218 L4.56211813,23.4623218 L4.56211813,31.2830957 C4.56211813,31.6435031 4.85409369,31.9348269 5.21384929,31.9348269 L9.12423625,31.9348269 C11.0585743,31.9348269 12.669002,33.3464766 12.9805295,35.1934827 L6.51731161,35.1934827 L3.2586558,35.1934827 Z M37.6368228,22.8855397 L35.9820774,37.2236253 C35.944277,37.5520978 35.6666395,37.8004073 35.3349084,37.8004073 L7.82077393,37.8004073 C7.46167006,37.8004073 7.16904277,37.5084318 7.16904277,37.1486762 L7.16904277,36.496945 L13.6863544,36.496945 L15.9419959,36.496945 C16.2730754,36.496945 16.5513646,36.2486354 16.589165,35.9195112 L18.1103055,22.7356415 C18.1494094,22.407169 18.4270468,22.1588595 18.758778,22.1588595 L36.9896538,22.1588595 C37.1780041,22.1588595 37.3507128,22.2364155 37.4758452,22.3771894 C37.6009776,22.5179633 37.6583299,22.6978411 37.6368228,22.8855397 Z" id="Shape"></path>
                <path d="M27.3727088,26.7209776 C25.9349898,26.7209776 24.7657841,27.8901833 24.7657841,29.3279022 C24.7657841,30.7656212 25.9349898,31.9348269 27.3727088,31.9348269 C28.8104277,31.9348269 29.9796334,30.7656212 29.9796334,29.3279022 C29.9796334,27.8901833 28.8104277,26.7209776 27.3727088,26.7209776 Z M27.3727088,30.6313646 C26.6538493,30.6313646 26.0692464,30.0467617 26.0692464,29.3279022 C26.0692464,28.6090428 26.6538493,28.0244399 27.3727088,28.0244399 C28.0915682,28.0244399 28.6761711,28.6090428 28.6761711,29.3279022 C28.6761711,30.0467617 28.0915682,30.6313646 27.3727088,30.6313646 Z" id="Shape"></path>
                <path d="M6.51731161,11.7311609 L5.21384929,11.7311609 C5.21384929,14.2461914 7.26028513,16.293279 9.77596741,16.293279 L9.77596741,14.9898167 C7.9791446,14.9898167 6.51731161,13.5279837 6.51731161,11.7311609 Z" id="Path"></path>
            </g>
        </g>
    </g>
</svg>